<?xml version="1.0" encoding="UTF-8" standalone="no"?>
<!-- Created with Inkscape (http://www.inkscape.org/) -->

<svg
   width="201.21017mm"
   height="237.84631mm"
   viewBox="0 0 201.21017 237.84631"
   version="1.1"
   id="svg5"
   inkscape:version="1.1.2 (0a00cf5339, 2022-02-04)"
   sodipodi:docname="petcare.svg"
   inkscape:export-filename="/home/pedro/alpha/school/ipvc/ano2/s1/prog2/projeto/src/main/resources/prog/projeto/assets/petcare.png"
   inkscape:export-xdpi="96"
   inkscape:export-ydpi="96"
   xmlns:inkscape="http://www.inkscape.org/namespaces/inkscape"
   xmlns:sodipodi="http://sodipodi.sourceforge.net/DTD/sodipodi-0.dtd"
   xmlns="http://www.w3.org/2000/svg"
   xmlns:svg="http://www.w3.org/2000/svg">
  <sodipodi:namedview
     id="namedview7"
     pagecolor="#505050"
     bordercolor="#ffffff"
     borderopacity="1"
     inkscape:pageshadow="0"
     inkscape:pageopacity="0"
     inkscape:pagecheckerboard="1"
     inkscape:document-units="mm"
     showgrid="false"
     inkscape:zoom="0.7500982"
     inkscape:cx="239.302"
     inkscape:cy="475.2711"
     inkscape:window-width="1920"
     inkscape:window-height="1013"
     inkscape:window-x="0"
     inkscape:window-y="30"
     inkscape:window-maximized="1"
     inkscape:current-layer="layer1" />
  <defs
     id="defs2" />
  <g
     inkscape:label="Layer 1"
     inkscape:groupmode="layer"
     id="layer1"
     transform="translate(24.643202,-61.835665)">
    <path
       style="fill:#ffffff;stroke-width:0.367106;fill-opacity:1"
       d="m 40.436348,298.29485 c -0.0026,-0.15133 -0.644313,-2.09251 -1.427682,-4.31348 l -1.424292,-4.03819 -5.272017,-0.0953 c -2.899609,-0.0526 -5.481613,-0.17248 -5.737783,-0.26645 -0.268908,-0.0984 1.712142,-2.23049 4.687175,-5.04391 l 5.152944,-4.87305 12.346755,-4.50298 c 6.790704,-2.47662 12.416788,-4.43295 12.50239,-4.34732 0.08561,0.0856 0.925196,6.20055 1.86578,13.58886 l 1.710159,13.43321 3.860878,8.8e-4 c 2.12348,7.8e-4 6.462738,0.10932 9.642804,0.24106 l 5.781913,0.23976 v -1.51215 c 0,-3.68769 -3.765886,-9.28823 -7.324715,-10.89301 -0.817201,-0.36848 -1.482807,-0.85142 -1.479116,-1.07314 0.0039,-0.22171 1.53178,-5.97521 3.395721,-12.78555 L 82.1063,259.67177 94.16629,246.46162 c 6.63301,-7.26556 12.56488,-14.00071 13.18199,-14.96701 1.4932,-2.33815 3.08708,-5.87449 3.40034,-7.54432 0.48797,-2.6009 -1.68692,-8.90124 -6.6702,-19.32276 l -2.73831,-5.72669 -0.88089,-9.17768 -0.88087,-9.17765 10.60692,-10.6461 10.60691,-10.64608 0.33039,-8.99411 c 0.18176,-4.94677 0.28108,-9.05606 0.22095,-9.13175 -0.0604,-0.0758 -3.13136,1.10292 -6.8246,2.61922 l -6.71501,2.75683 -5.00919,0.26808 -5.009139,0.2681 -3.145871,-1.18735 -3.145884,-1.1873 -8.364746,3.34856 c -7.771557,3.11113 -8.54788,3.34852 -10.947128,3.34774 l -2.582368,-8.4e-4 -5.599751,13.87218 c -3.079853,7.6297 -5.687815,14.20892 -5.795449,14.62049 -0.175283,0.67031 0.433618,0.98724 5.834332,3.03731 l 6.03004,2.28893 0.236924,3.3378 c 0.130326,1.83581 0.236911,4.93994 0.236911,6.89808 v 3.56025 l -14.170817,15.1977 -14.17079,15.19755 -17.893062,8.66129 c -9.841191,4.76369 -18.6431723,9.17736 -19.5599708,9.80812 -2.5149456,1.73032 -5.62469652,5.08696 -6.8398256,7.3828 -1.6587822,3.1341 -2.2531173,5.63024 -2.2734964,9.54842 l -0.018302,3.51267 -1.7875646,1.45852 c -0.9831675,0.8022 -1.9248292,1.49402 -2.0925902,1.53741 -0.1677583,0.0433 -1.8744174,-1.72448 -3.7925434,-3.9286 -2.570099,-2.95329 -3.890397,-4.84883 -5.019065,-7.20586 -2.792195,-5.83096 -3.05952,-7.06109 -3.039704,-13.98734 0.0093,-3.37773 0.159715,-8.9497 0.333457,-12.38214 0.17374,-3.43246 0.27045,-6.28763 0.214913,-6.34484 -0.05557,-0.0575 -0.869465,1.42952 -1.808717,3.30394 -2.674037,5.33638 -3.282907,8.16055 -3.26743,15.1554 0.01366,6.19655 0.53305,10.46664 2.154127,17.71124 1.078171,4.81841 1.528231,5.98983 3.502167,9.11532 2.550696,4.03876 7.880872,8.23323 13.4429863,10.57881 2.0177297,0.85089 2.0795368,0.91921 2.115144,2.33833 0.044245,1.76249 0.8705574,3.11695 2.57527885,4.22111 1.45415242,0.94184 1.46937527,1.04476 0.72786436,4.91983 -0.30283159,1.58254 -0.5506236,3.08386 -0.55066505,3.33623 -5.051e-5,0.36168 4.35623494,0.4589 20.55789654,0.4589 11.306874,0 20.556435,-0.12395 20.55457,-0.27531 z"
       id="path305" />
    <text
       xml:space="preserve"
       style="font-style:normal;font-variant:normal;font-weight:normal;font-stretch:normal;font-size:324.382px;line-height:1.25;font-family:sans-serif;-inkscape-font-specification:'sans-serif, Normal';font-variant-ligatures:normal;font-variant-caps:normal;font-variant-numeric:normal;font-variant-east-asian:normal;fill:#920707;fill-opacity:1;stroke:none;stroke-width:8.10956"
       x="-7.9569659"
       y="298.3114"
       id="text6867"><tspan
         sodipodi:role="line"
         id="tspan6865"
         style="font-style:normal;font-variant:normal;font-weight:normal;font-stretch:normal;font-size:324.382px;font-family:sans-serif;-inkscape-font-specification:'sans-serif, Normal';font-variant-ligatures:normal;font-variant-caps:normal;font-variant-numeric:normal;font-variant-east-asian:normal;fill:#920707;stroke-width:8.10956;fill-opacity:1"
         x="-7.9569659"
         y="298.3114">P</tspan></text>
    <path
       style="fill:#ffffff;stroke-width:0.183831;fill-opacity:1"
       d="m 82.975387,298.76299 -1.149841,-0.91919 -2.044666,6e-4 c -1.124558,3.3e-4 -10.237224,-0.0898 -20.25036,-0.20006 -15.681315,-0.17299 -19.810668,-0.15907 -29.780593,0.0974 -6.366183,0.16422 -14.097959,0.41889 -17.181716,0.56616 -6.2939565,0.30061 -22.695713,0.36938 -23.408801,0.0984 -1.495888,-0.56871 -2.701939,-3.70064 -3.353414,-8.70835 -0.341003,-2.62114 -0.192509,-4.20609 0.743963,-7.94245 0.688147,-2.74543 1.26688,-4.01402 2.208323,-4.84065 1.7567168,-1.54241 5.1305058,-2.55068 8.7660833,-2.61976 1.2639736,-0.0232 1.50995491,0.031 2.38979784,0.53834 1.25157436,0.72116 2.98965966,2.11427 5.72814146,4.59121 1.6703745,1.51081 2.3309076,1.99404 2.8525439,2.08704 1.5544795,0.27717 10.8637725,0.95501 25.0152125,1.82182 5.029811,0.30805 7.284432,-0.0721 8.911307,-1.50462 1.259444,-1.10864 1.339451,-1.46391 0.943058,-4.18686 -0.43069,-2.95827 -0.406236,-5.11007 0.08691,-7.64881 0.464923,-2.39357 0.986694,-3.45618 4.874513,-9.92688 8.841236,-14.715 15.895455,-25.19628 19.451578,-28.90138 1.984903,-2.06811 4.326008,-3.41769 8.321901,-4.7975 2.173333,-0.75042 5.503904,-1.60181 7.24375,-1.85174 0.758293,-0.10854 1.986742,-0.28454 2.729881,-0.38984 1.815112,-0.2578 2.417381,-0.58092 2.417381,-1.2973 0,-0.76679 0.536045,-1.72959 1.660357,-2.98209 1.194903,-1.33127 1.815552,-1.64679 4.188844,-2.12961 2.558794,-0.52055 3.03044,-0.77398 3.941635,-2.11775 2.818864,-4.15714 10.425664,-13.89768 11.323984,-14.50042 0.26716,-0.17918 1.31016,-0.58417 2.31831,-0.90013 1.34637,-0.42194 1.93067,-0.7015 2.20094,-1.05306 0.97098,-1.26315 2.40004,-2.57906 3.28967,-3.02916 0.9779,-0.49479 3.59531,-3.01109 6.12015,-5.88362 l 1.11163,-1.26475 0.6187,1.66964 c 0.70167,1.89333 0.68759,1.89175 1.77202,0.20084 0.5196,-0.81032 0.797,-1.08134 1.06928,-1.04471 0.32402,0.0438 0.36576,0.18228 0.35171,1.16731 -0.008,0.6147 -0.1668,1.92044 -0.35176,2.90155 l -0.33575,1.78379 0.60271,0.62188 c 0.49671,0.51239 0.89816,0.69389 2.28198,1.03146 3.64758,0.88976 4.69153,1.47947 7.95872,4.49562 l 1.71715,1.58528 v 1.52036 c 0,1.3316 0.0703,1.66149 0.56871,2.65832 0.31276,0.62592 1.38327,2.22031 2.37889,3.54304 l 1.81017,2.40492 -0.34819,0.88345 c -0.19156,0.48589 -0.86461,1.86213 -1.4957,3.05835 -1.23964,2.34959 -2.65093,4.03763 -4.18273,5.00287 -0.80154,0.50513 -0.98721,0.53932 -3.59297,0.6618 -3.15872,0.14825 -4.51476,0.48492 -5.88674,1.46039 -1.59763,1.13589 -2.19442,2.3771 -2.66786,5.54883 -0.25704,1.7205 -0.22584,1.81452 1.33959,4.06465 l 0.92382,1.32789 -0.2194,0.97982 c -0.12071,0.53892 -0.74141,2.05079 -1.37955,3.35978 -1.26967,2.6044 -2.00588,3.86718 -8.83618,15.15621 l -4.61582,7.62896 0.16654,6.4341 c 0.14412,5.56575 0.1158,7.40152 -0.20959,13.6025 l -0.37633,7.1685 0.98037,1.19581 c 1.91119,2.33109 1.80934,2.27589 4.10998,2.22665 2.2879,-0.049 2.83438,0.11009 4.37994,1.27735 1.36609,1.03143 1.63427,1.6127 1.34349,2.9121 -0.45009,2.01127 0.0688,1.83766 -5.21536,1.74484 -2.54061,-0.0446 -5.69475,-0.12968 -7.0091,-0.18949 l -2.38982,-0.10802 -3.94945,-6.11763 c -3.54978,-5.49849 -3.9821,-6.09476 -4.27213,-5.8916 -0.79316,0.55556 -6.058717,5.31336 -6.317505,5.70836 -0.264253,0.40347 -0.257168,0.56621 0.08562,1.96664 0.489688,1.99977 0.844361,4.43756 0.700228,4.81317 -0.102194,0.26661 -0.745315,0.29842 -6.071345,0.29842 h -5.956847 z"
       id="path15655" />
    <text
       xml:space="preserve"
       style="font-style:normal;font-variant:normal;font-weight:bold;font-stretch:normal;font-size:118.938px;line-height:1.25;font-family:sans-serif;-inkscape-font-specification:'sans-serif, Bold';font-variant-ligatures:normal;font-variant-caps:normal;font-variant-numeric:normal;font-variant-east-asian:normal;fill:#920707;fill-opacity:1;stroke:none;stroke-width:2.97345"
       x="52.237553"
       y="296.26529"
       id="text18590"><tspan
         sodipodi:role="line"
         id="tspan18588"
         style="font-style:normal;font-variant:normal;font-weight:bold;font-stretch:normal;font-size:118.938px;font-family:sans-serif;-inkscape-font-specification:'sans-serif, Bold';font-variant-ligatures:normal;font-variant-caps:normal;font-variant-numeric:normal;font-variant-east-asian:normal;fill:#920707;stroke-width:2.97345;fill-opacity:1"
         x="52.237553"
         y="296.26529">C</tspan></text>
    <path
       style="fill:#ffffff;stroke-width:0.0644967;fill-opacity:1"
       d="m -10.96744,298.81221 c -0.287615,-0.46144 -0.522918,-0.8487 -0.522918,-0.86058 0,-0.013 1.9518326,-0.0414 4.3374015,-0.0658 2.3855704,-0.0232 9.4890716,-0.10077 15.7855645,-0.17015 6.296492,-0.0692 14.161861,-0.15521 17.478597,-0.19181 3.316746,-0.0364 8.599026,-0.0948 11.738396,-0.12994 3.139371,-0.0351 8.407141,-0.0934 11.706148,-0.12939 9.940888,-0.10854 17.071577,-0.18717 21.138798,-0.23306 2.268714,-0.0263 3.85286,-0.0206 3.851707,0.0154 -0.0065,0.17427 -0.238555,1.77108 -0.261287,1.79354 -0.04559,0.0451 -4.979646,0.1031 -19.827467,0.23384 -7.839569,0.069 -17.431841,0.15546 -21.316152,0.19233 -20.031302,0.19 -41.6242067,0.38553 -42.5447432,0.38574 l -1.0411368,2.3e-4 z"
       id="path29753" />
  </g>
</svg>
